<svg version="1.1" id="Layer_1" xmlns="http://www.w3.org/2000/svg" x="0" y="0" viewBox="0 0 68.2 68.2" xml:space="preserve"><style>.st1{fill:#fff}</style><path d="M0 34.1C0 15.3 15.3 0 34.1 0 53 0 68.2 15.3 68.2 34.1 68.2 53 53 68.2 34.1 68.2 15.3 68.2 0 53 0 34.1" fill="#ea7824"/><path class="st1" d="M49.2 23.1c-.8-.2-1.5-.3-2.2-.4v-1.4c0-.4-.4-.6-.5-.6-1.9-.7-3.7-1.2-5.4-1.7-1.4-2.5-4-4.2-7-4.2s-5.6 1.7-7 4.2c-1.8.4-3.6 1-5.6 1.7-.2.1-.3.3-.3.6v1.4c-.7.1-1.5.3-2.2.4-.4.1-.6.4-.6.8v28.6c0 .5.4.8.8.8h10.9v-4.8h8.1v4.8h10.9c.4 0 .8-.4.8-.8V23.9c0-.3-.3-.7-.7-.8zm-23.5 22h-4.3v-4.5h4.3v4.5zm0-7.3h-4.3v-4.5h4.3v4.5zm0-7.4h-4.3v-4.5h4.3v4.5zm7 14.7h-4.3v-4.5h4.3v4.5zm0-7.3h-4.3v-4.5h4.3v4.5zm7 7.3h-4.3v-4.5h4.3v4.5zm0-7.3h-4.3v-4.5h4.3v4.5zm-5.6-8.2c-3.4 0-6.2-2.9-6.2-6.4 0-3.5 2.8-6.4 6.2-6.4 3.4 0 6.2 2.9 6.2 6.4 0 3.5-2.8 6.4-6.2 6.4zm12.5 15.5h-4.3v-4.5h4.3v4.5zm0-7.3h-4.3v-4.5h4.3v4.5zm0-7.4h-4.3v-4.5h4.3v4.5z"/><path class="st1" d="M35.6 22.4h-2.9v-2.8h-1.6v7.2h1.6v-3h2.9v3h1.6v-7.2h-1.6z"/></svg>