<svg xmlns="http://www.w3.org/2000/svg" viewBox="0 0 68.2 68.2"><path d="M0 34.1C0 15.3 15.3 0 34.1 0 53 0 68.2 15.3 68.2 34.1 68.2 53 53 68.2 34.1 68.2 15.3 68.2 0 53 0 34.1" fill="#ec7700"/><path d="M46.5 20.7c-6.6-2.2-10 2.1-11.6 2.1-1.6 0-5.2-4.9-11.6-2.1-5.5 2.4-8.1 9-5.1 15.3h5.4l2.1-5.8c.2-.6.8-1 1.4-1 .6 0 1.2.4 1.3 1.1l2 6.6 3.2-11.1c.2-.7.5-1.2 1.2-1.2s1 .5 1.1 1.2L38.2 36h5.6v2.4H37c-.7 0-1.3-.5-1.5-1.2l-1.1-5.6L32 41.8c-.2.6-.8 1.1-1.4 1.1-.6 0-1.2-.4-1.4-1.1L27.1 34 26 37.5c-.2.6-.8 1-1.4 1h-9v2.4h6.6l1.2 1c2.8 2.2 5.8 4.7 8.5 6.3.8.5 3.2 2.1 3.2 2.1s2.4-1.6 3.2-2.1c2.6-1.6 6.8-4 9.5-6.3 8.3-7.4 5.1-19-1.3-21.2" fill="#fff"/></svg>