<svg version="1.1" id="Layer_1" xmlns="http://www.w3.org/2000/svg" x="0" y="0" viewBox="0 0 68.2 68.2" xml:space="preserve"><style>.st1{fill:#fff}</style><path d="M0 34.1C0 15.3 15.3 0 34.1 0 53 0 68.2 15.3 68.2 34.1 68.2 53 53 68.2 34.1 68.2 15.3 68.2 0 53 0 34.1" fill="#ea7824"/><path class="st1" d="M27.9 22.6c2.3-.2 3.9-2.2 3.7-4.4-.2-2.3-2.2-3.9-4.4-3.7-2.3.2-3.9 2.2-3.7 4.4.2 2.2 2.2 3.9 4.4 3.7z"/><path class="st1" d="M45.2 41c-4.8-3-7.1-3.4-7.1-3.4.8-.7 6.2-2.4 7-2.1 2.5 1 4.6 6.7 4.6 6.7l3-1.3C49.2 29.4 45.9 30 45 30.1c-2 .3-6.4 1.7-8.8 2.4l-1.5-4.4c3.3-1.5 5.7-3.6 6.2-5.2.6-2.2-1.1-9.6-1.1-9.6l-2.9.2c.8 2.8.4 5.9.2 6.4-1 2.8-5.7 4.1-6.3 4.3l-3.5.9s-5.9 1.4-7.4.6c-1.2-.7-2.9-3.3-4-5.5L13.6 22s3.1 6 4.6 7.7c1 1 1.3 1.5 7.1.9l4.2 9c.5.9.9 1.4 2.2 2.1 2.7 1.6 6.5.8 10.4 3.2 3.4 2.1 8.2 8.5 8.2 8.5l2.3-2.5c-1.2-1.8-5.4-8.7-7.4-9.9zm-19.8.9l-3.1 4.2s4.6 5.6 15.6 8.7h1.9c.1 0-8.3-4.3-14.4-12.9z"/></svg>