<svg xmlns="http://www.w3.org/2000/svg" viewBox="0 0 68.2 68.2"><path d="M0 34.1C0 15.3 15.3 0 34.1 0 53 0 68.2 15.3 68.2 34.1 68.2 53 53 68.2 34.1 68.2 15.3 68.2 0 53 0 34.1" fill="#ec7700"/><path d="M57.2 23.4H54v-3.3c0-1.1-.9-1.9-1.9-1.9-1.1 0-1.9.9-1.9 1.9v3.3h-3.3c-1.1 0-1.9.9-1.9 1.9s.9 1.9 1.9 1.9h3.3v3.3c0 .9.6 1.6 1.3 1.8.2.1.4.1.6.1 1.1 0 1.9-.9 1.9-1.9v-3.3h3.3c1.1 0 1.9-.9 1.9-1.9s-.9-1.9-2-1.9m-8.9 7.1v-1.4h-1.4c-2.1 0-3.7-1.7-3.7-3.7 0-2.1 1.7-3.7 3.7-3.7h1.4c-1.4-.9-3.1-1.4-5.2-1.4-4.5 0-7.5 2.5-9.4 5.3v.1c-1.9-2.8-5-5.3-9.5-5.3-6 0-9 4.5-9 7.9 0 5.2 2.6 8.7 6.3 12.2 3.5 3.4 8 6.8 12.2 11.6 6.7-7.8 14.2-11.8 17.2-17.9-1.6-.7-2.6-2-2.6-3.7" fill="#fff"/></svg>