<svg xmlns="http://www.w3.org/2000/svg" viewBox="0 0 143.3 82.8"><path d="M21.8 2.6c4.9 0 13.5 0 16.8 8.2 1.5 3.9 1.7 12.4 1.7 16.9 0 .5-.1 10.7-.8 14.6-2 12.2-12 12.3-19.6 12.2h-4.5v-52h6.4zM0 56.2h21.7c6.3-.1 13.5-.1 20.3-7.3 5.2-5.5 7.7-12.9 7.7-20.5 0-14-7.8-23.3-17-26.1C28.4 1 23.5 1 18 1H.4v1.5h7v52.3H0v1.4zm67.8-38.9l8.1 21.9h-16l7.9-21.9zM71.3.9L53.9 48.7c-2 4.8-2 5.2-5.4 5.5h-3.4v2h17.2v-2h-3.8c-1.8 0-3 0-3-1.4 0-.8.3-1.7.7-2.9l3-8.6h17.5l4.6 12.9h-7.4v2h25v-2H93L73.9.9h-2.6zm71.3 14.4V.9h-1.2l-2.8 3.9c-4.4-2.5-8.5-4.8-15-4.8C110.8 0 96 10.3 96 29.2c0 16.9 13.5 28 26.6 28 5.9 0 11-1.9 15.7-5.2l3.1 4.2h1.3l.5-15.4h-1.5c-.5.9-2.5 4.9-3 5.7-.6 1.2-5.4 8.8-15.8 8.8-4.5 0-8.7-1.5-11.2-3.9-4.6-4.2-4.6-9.4-4.6-21 0-10.3.5-17.1 1.9-20.4 2.2-5.2 6.4-6.8 8.9-7.5 2.3-.6 4.2-.7 5.4-.7 4.1 0 7.9 1.2 10.9 3.3 3.5 2.6 5.6 6.3 6.7 10.1l1.7.1zM2.3 79.5H0V69h2.2c2.4 0 3.3 1.3 3.3 3.6v3.1c0 2.3-.7 3.8-3.2 3.8zm1.8-7.3c0-1.2-.5-2.1-1.9-2.1h-.8v8.2h.9c1.4 0 1.8-1.1 1.8-2.4v-3.7zm5.4 7.4c-1.6 0-2.5-.9-2.5-2.5v-3.4c0-1.6.9-2.5 2.5-2.5 1.5 0 2.4.9 2.4 2.4v2.1H8.4v1.6c0 .7.4 1.2 1.1 1.2 1.1 0 1.1-.6 1.1-1.5h1.3v.4c0 1.5-.9 2.2-2.4 2.2zm1.1-6.1c0-.7-.4-1.2-1.1-1.2s-1.2.5-1.2 1.2v1.1h2.3v-1.1zm5 6.1c-1.4 0-2.5-.6-2.5-2.2V77h1.3v.4c0 .8.4 1.2 1.2 1.2.6 0 1.1-.3 1.1-1 0-1.7-3.5-1.8-3.5-4.4V73c0-1.4 1.1-1.9 2.4-1.9 1.3 0 2.3.6 2.3 2v.4h-1.3v-.3c0-.7-.4-1-1.1-1-.5 0-1 .2-1 .8 0 1.6 3.5 1.9 3.5 4.3v.2c.1 1.6-1 2.1-2.4 2.1zm3.6-9.4v-1.5h1.4v1.5h-1.4zm0 9.3v-8.1h1.3v8.1h-1.3zm5.4 3.3c-1.4 0-3-.6-3-2.2 0-1 .7-1.7 1.5-2.1-.5-.2-.9-.5-.9-1.1s.3-.9.7-1.2c-.6-.2-.8-1.2-.8-1.8v-1.1c0-1.5 1.1-2.2 2.5-2.2.5 0 1.1.1 1.6.4.5-.5.9-.6 1.5-.6V72c-.1 0-.3-.1-.4-.1-.2 0-.4.1-.6.2.4.6.3 1.7.3 2.3 0 1.6-1 2.2-2.4 2.2-.3 0-.7 0-1-.1-.1.1-.2.3-.2.5 0 .4.6.6.9.6l1.5.5c1 .4 2 .8 2 2.1 0 1.9-1.6 2.6-3.2 2.6zm.6-3.5l-1.4-.4c-.5.3-1 .7-1 1.3 0 1.1.9 1.5 1.9 1.5.8 0 1.8-.2 1.8-1.1 0-.9-.7-1.1-1.3-1.3zm.6-5.9c0-.8-.5-1.2-1.2-1.2s-1.2.5-1.2 1.2v1.2c0 .7.5 1.1 1.2 1.1s1.2-.4 1.2-1.1v-1.2zm6.4 6.1v-6c0-.6-.2-1-.8-1-.5 0-1 .4-1.4.7v6.3h-1.3v-8.1H30v.8c.5-.5 1-.9 1.7-.9 1.3 0 1.8.7 1.8 1.9v6.3h-1.3zm6.5 0v-.7c-.5.4-1.1.8-1.7.8-1.2 0-2-.8-2-2v-.4c0-2 2-2.5 3.7-2.7v-1.1c0-.7-.3-1.1-1-1.1-1 0-1.1.6-1.1 1.5h-1.3v-.3c0-1.6.9-2.3 2.4-2.3 1.4 0 2.3.6 2.3 2.1v6.1l-1.3.1zm-.1-4.1c-1 .1-2.3.4-2.3 1.7v.3c0 .7.3 1.1 1 1.1.5 0 1-.3 1.3-.7v-2.4zm5.4 4.2c-1.4 0-1.9-.7-1.9-2v-5.1H41v-1.1h1.1v-2.3l1.3-.2v2.5H45v1.1h-1.5v5.2c0 .6.2.9.8.9.3 0 .5-.1.8-.1v1.1c-.4-.1-.7 0-1.1 0zm4.6 0c-1.6 0-2.5-.9-2.5-2.5v-3.4c0-1.6.9-2.5 2.5-2.5 1.5 0 2.3.9 2.3 2.4v2.1h-3.6v1.6c0 .7.4 1.2 1.1 1.2 1.1 0 1.1-.6 1.1-1.5H51v.4c0 1.5-.9 2.2-2.4 2.2zm1.1-6.1c0-.7-.4-1.2-1.1-1.2s-1.2.5-1.2 1.2v1.1h2.3v-1.1zm6.5 6v-.7c-.5.4-1.1.8-1.8.8-1.3 0-1.8-1-1.8-2.2v-3.8c0-1.2.4-2.4 1.8-2.4.7 0 1.3.3 1.8.8v-3.3h1.3v10.8h-1.3zm-.1-6.4c-.4-.3-.8-.6-1.3-.6-.8 0-1 .5-1 1.2v3.6c0 .7.2 1.1 1 1.1.5 0 1-.3 1.4-.6l-.1-4.7zm10.1 6.4l-.6-2.8h-2.2l-.4 2.8h-1.4l2-10.4h2.1l2.1 10.4h-1.6zm-1.7-9.6c-.3 1.8-.6 3.7-.9 5.6h1.9c-.4-1.9-.8-3.7-1-5.6zm7.1 12.9c-1.4 0-3-.6-3-2.2 0-1 .7-1.7 1.5-2.1-.5-.2-.9-.5-.9-1.1s.3-.9.7-1.2c-.6-.2-.8-1.2-.8-1.8v-1.1c0-1.5 1.1-2.2 2.5-2.2.6 0 1.1.1 1.6.4.5-.5.9-.6 1.6-.6V72c-.1 0-.3-.1-.4-.1-.2 0-.4.1-.6.2.4.6.3 1.7.3 2.3 0 1.6-1 2.2-2.4 2.2-.3 0-.7 0-1-.1-.1.1-.2.3-.2.5 0 .4.6.6.9.6l1.5.5c1.1.4 2 .8 2 2.1-.1 1.9-1.7 2.6-3.3 2.6zm.6-3.5l-1.4-.4c-.6.3-1 .7-1 1.3 0 1.1.9 1.5 1.9 1.5.8 0 1.8-.2 1.8-1.1 0-.9-.7-1.1-1.3-1.3zm.6-5.9c0-.8-.4-1.2-1.2-1.2-.7 0-1.2.5-1.2 1.2v1.2c0 .7.5 1.1 1.2 1.1s1.2-.4 1.2-1.1v-1.2zm5.2 6.2c-1.6 0-2.5-.9-2.5-2.5v-3.4c0-1.6.9-2.5 2.5-2.5 1.5 0 2.3.9 2.3 2.4v2.1h-3.6v1.6c0 .7.4 1.2 1.1 1.2 1.1 0 1.1-.6 1.1-1.5h1.3v.4c.2 1.5-.7 2.2-2.2 2.2zm1.2-6.1c0-.7-.4-1.2-1.1-1.2-.8 0-1.2.5-1.2 1.2v1.1h2.3v-1.1zm6.2 6v-6c0-.6-.2-1-.8-1-.5 0-1 .4-1.3.7v6.3H82v-8.1h1.2l.1.8c.4-.5 1.1-.9 1.7-.9 1.3 0 1.8.7 1.8 1.9v6.3h-1.4zm5.5.1c-1.4 0-1.9-.7-1.9-2v-5.1h-1.1v-1.1H89v-2.3l1.3-.2v2.5h1.5v1.1h-1.5v5.2c0 .6.2.9.8.9.3 0 .5-.1.8-.1l.1 1.1c-.4-.1-.7 0-1.1 0zm7.9 0c-1.8 0-2.7-1-2.7-2.8v-5.2c0-1.7.9-2.8 2.7-2.8 1.6 0 2.7.8 2.7 2.4v1.2h-1.3v-.7c0-1-.1-1.8-1.3-1.8-1 0-1.3.6-1.3 1.5v5.2c0 .9.3 1.7 1.3 1.7 1.6 0 1.4-1.5 1.3-2.6h1.4v1.1c0 2-1 2.8-2.8 2.8zm6.8 0c-1.6 0-2.5-.9-2.5-2.4v-3.6c0-1.5 1-2.4 2.5-2.4 1.6 0 2.5.8 2.5 2.4v3.6c0 1.6-1 2.4-2.5 2.4zm1.2-6c0-.7-.4-1.2-1.2-1.2-.8 0-1.2.5-1.2 1.2v3.7c0 .8.4 1.2 1.2 1.2s1.2-.4 1.2-1.2v-3.7zm9.3 5.9v-5.9c0-.5-.2-1.1-.8-1.1-.5 0-.9.4-1.2.8v6.2h-1.3v-6c0-.6-.2-1-.8-1-.5 0-.8.3-1.1.6v6.3h-1.3v-8.1h1.2l.1.7c.4-.5 1-.8 1.7-.8s1.2.3 1.5 1c.4-.7 1-1 1.8-1 1.2 0 1.6.9 1.6 2v6.2c-.1.1-1.4.1-1.4.1zm6.1.1c-.7 0-1.3-.3-1.8-.8v3.8H119V71.4h1.2v.6c.5-.5 1.2-.8 1.8-.8 1.2 0 1.8 1 1.8 2.2v3.8c.2 1.2-.3 2.4-1.6 2.4zm.5-6c0-.6-.3-1.2-1-1.2-.5 0-1 .3-1.4.6v4.7c.3.3.9.6 1.4.6.9 0 1-.6 1-1.3v-3.4zm6.4 5.9v-.7c-.5.4-1.1.8-1.7.8-1.2 0-2-.8-2-2v-.4c0-2 2-2.5 3.7-2.7v-1.1c0-.7-.3-1.1-1-1.1-1 0-1.1.6-1.1 1.5h-1.3v-.3c0-1.6.9-2.3 2.4-2.3 1.4 0 2.3.6 2.3 2.1v6.1l-1.3.1zm-.1-4.1c-1 .1-2.3.4-2.3 1.7v.3c0 .7.3 1.1 1 1.1.5 0 1-.3 1.3-.7v-2.4zm6.3 4.1v-6c0-.6-.2-1-.8-1-.5 0-1 .4-1.4.7v6.3h-1.3v-8.1h1.2l.1.8c.4-.5 1.1-.9 1.7-.9 1.3 0 1.8.7 1.8 1.9v6.3h-1.3zm5.6.9c-.4 1.4-.9 2.3-2.4 2.3-.2 0-.5 0-.7-.1v-1.1c.2 0 .4.1.6.1.9 0 1.1-.5 1.2-1.2l.2-1.1-2.1-7.9h1.4c.5 2.2 1 4.3 1.4 6.5.3-2.2.9-4.3 1.4-6.5h1.3l-2.3 9z" fill="#fff"/></svg>